<?xml version="1.0" encoding="UTF-8"?>
<svg id="works" xmlns="http://www.w3.org/2000/svg" version="1.1" viewBox="0 0 500 500">
  <!-- Generator: Adobe Illustrator 30.3.0, SVG Export Plug-In . SVG Version: 2.1.3 Build 182)  -->
  <defs>
    <style>
      .st0 {
        fill: #e1e2e2;
      }
    </style>
  </defs>
  <path class="st0" d="M68.5,202h100l36-24h-93.9l144-96.1h93.9l36-24H71.1c-6.6,0-12,5.4-12,12s5.4,12,12,12h140.4L62.3,181.5c-9.2,6.2-4.9,20.6,6.2,20.6Z"/>
  <path class="st0" d="M424.1,60.2L62.3,301.5c-9.2,6.2-4.9,20.6,6.2,20.6h99.5l36-24h-93.4l144-96.1h93.9l36-24h-93.9l128.4-85.6v109.6h0c13.3,0,24-10.7,24-24v-107.6c0-9.7-10.9-15.5-18.9-10.1h0Z"/>
  <path class="st0" d="M424.1,300.2l-176.7,117.8H110.3l143.9-95.9h94.4l36-24h-130.5c-4.7,0-9.2,1.4-13.1,4l-179,119.4c-9.2,6.2-4.9,20.6,6.2,20.6h280l36-24h-93.6l128.4-85.6v109.6h0c13.3,0,24-10.7,24-24v-107.7c0-9.7-10.9-15.5-18.9-10.1h0Z"/>
</svg>